<svg xmlns="http://www.w3.org/2000/svg" viewBox="0 0 128 128">
  <defs>
    <filter id="s" x="-20%" y="-20%" width="140%" height="140%"><feDropShadow dx="0" dy="5" stdDeviation="4" flood-color="#020617" flood-opacity="0.32"/></filter>
  </defs>
  <rect width="128" height="128" rx="26" fill="#0f172a" opacity="0"/>
  <g filter="url(#s)" stroke-linecap="round" stroke-linejoin="round">
    <path d="M28 91 C43 76 55 61 66 41 C73 28 80 23 88 18" fill="none" stroke="#5f3417" stroke-width="16"/>
    <path d="M31 90 C46 76 58 60 68 41 C75 29 81 24 89 19" fill="none" stroke="#9a6734" stroke-width="11"/>
    <path d="M53 65 C48 56 45 49 39 43" fill="none" stroke="#5f3417" stroke-width="10"/>
    <path d="M54 64 C49 56 46 50 40 44" fill="none" stroke="#a66b34" stroke-width="7"/>
    <path d="M63 50 C74 49 85 45 98 36" fill="none" stroke="#5f3417" stroke-width="10"/>
    <path d="M64 50 C75 49 86 45 98 36" fill="none" stroke="#a66b34" stroke-width="7"/>
    <path d="M72 35 C71 29 71 24 72 18" fill="none" stroke="#5f3417" stroke-width="8"/>
    <path d="M72 35 C72 29 72 24 73 19" fill="none" stroke="#a66b34" stroke-width="5"/>
    <ellipse cx="28" cy="91" rx="10" ry="12" transform="rotate(44 28 91)" fill="#d69e57" stroke="#5f3417" stroke-width="5"/>
    <ellipse cx="28" cy="91" rx="5" ry="7" transform="rotate(44 28 91)" fill="#f0c17a" opacity="0.65"/>
    <path d="M43 81 C49 72 55 63 61 52" fill="none" stroke="#6b3f1f" stroke-width="3" opacity="0.55"/>
    <path d="M56 72 C61 65 66 56 71 45" fill="none" stroke="#d69e57" stroke-width="3" opacity="0.45"/>
    <path d="M70 47 C83 25 98 17 106 19 C108 33 95 48 70 47Z" fill="#65a30d" stroke="#3f6212" stroke-width="5"/>
    <path d="M75 44 C86 37 94 30 102 22" fill="none" stroke="#3f6212" stroke-width="3" opacity="0.7"/>
    <path d="M91 39 C105 38 113 45 116 54 C103 59 91 54 91 39Z" fill="#84cc16" stroke="#3f6212" stroke-width="5"/>
    <path d="M96 43 C103 47 109 50 114 53" fill="none" stroke="#3f6212" stroke-width="3" opacity="0.65"/>
  </g>
</svg>
