<svg xmlns="http://www.w3.org/2000/svg" viewBox="0 0 128 128">
  <defs>
    <filter id="s" x="-20%" y="-20%" width="140%" height="140%">
      <feDropShadow dx="0" dy="5" stdDeviation="4" flood-color="#020617" flood-opacity="0.32"/>
    </filter>
  </defs>
  <rect width="128" height="128" rx="26" fill="#0f172a" opacity="0"/>
  <g filter="url(#s)" stroke-linecap="round" stroke-linejoin="round">
    <path d="M36 88 C51 80 65 71 78 61 C90 52 100 44 108 36" fill="none" stroke="#6b3b19" stroke-width="30"/>
    <path d="M36 88 C51 80 65 71 78 61 C90 52 100 44 108 36" fill="none" stroke="#9c5d2b" stroke-width="22"/>

    <path d="M58 71 C55 61 54 52 55 42" fill="none" stroke="#6b3b19" stroke-width="13"/>
    <path d="M58 71 C55 61 54 52 55 42" fill="none" stroke="#a56633" stroke-width="8"/>

    <path d="M84 55 C83 46 84 38 89 31" fill="none" stroke="#6b3b19" stroke-width="12"/>
    <path d="M84 55 C84 47 85 40 90 33" fill="none" stroke="#a56633" stroke-width="8"/>

    <path d="M88 72 C96 70 102 71 108 76" fill="none" stroke="#6b3b19" stroke-width="12"/>
    <path d="M88 72 C96 70 102 71 108 76" fill="none" stroke="#a56633" stroke-width="8"/>

    <path d="M44 82 C58 76 72 67 85 58" fill="none" stroke="#7a471f" stroke-width="3.2" opacity="0.45"/>
    <path d="M51 90 C67 82 82 71 97 60" fill="none" stroke="#d39b58" stroke-width="3.2" opacity="0.24"/>
    <path d="M49 72 C62 66 74 58 88 48" fill="none" stroke="#7a471f" stroke-width="3" opacity="0.34"/>
    <path d="M63 80 C76 72 87 64 99 55" fill="none" stroke="#d39b58" stroke-width="3" opacity="0.22"/>
    <path d="M71 69 C82 63 92 56 102 48" fill="none" stroke="#7a471f" stroke-width="3" opacity="0.3"/>

    <ellipse cx="31" cy="91" rx="18" ry="21" transform="rotate(44 31 91)" fill="#d9a35d" stroke="#6b3b19" stroke-width="5"/>
    <ellipse cx="31" cy="91" rx="12" ry="15" transform="rotate(44 31 91)" fill="none" stroke="#c98945" stroke-width="3" opacity="0.75"/>
    <ellipse cx="31" cy="91" rx="7" ry="10" transform="rotate(44 31 91)" fill="none" stroke="#e9c181" stroke-width="3" opacity="0.7"/>
    <ellipse cx="31" cy="91" rx="3" ry="5" transform="rotate(44 31 91)" fill="#e5bb77" opacity="0.8"/>

    <ellipse cx="55" cy="43" rx="6.5" ry="4.5" transform="rotate(-4 55 43)" fill="#d9a35d" stroke="#6b3b19" stroke-width="3"/>
    <ellipse cx="90" cy="32" rx="6.5" ry="4.5" transform="rotate(19 90 32)" fill="#d9a35d" stroke="#6b3b19" stroke-width="3"/>
    <ellipse cx="108" cy="76" rx="6.5" ry="4.5" transform="rotate(41 108 76)" fill="#d9a35d" stroke="#6b3b19" stroke-width="3"/>
  </g>
</svg>
