<svg xmlns="http://www.w3.org/2000/svg" viewBox="0 0 128 128">
  <defs>
    <filter id="s" x="-20%" y="-20%" width="140%" height="140%">
      <feDropShadow dx="0" dy="5" stdDeviation="4" flood-color="#020617" flood-opacity="0.32"/>
    </filter>
  </defs>
  <rect width="128" height="128" rx="26" fill="#0f172a" opacity="0"/>
  <g filter="url(#s)" stroke-linecap="round" stroke-linejoin="round">
    <path d="M28 95 C40 84 51 72 60 58 C69 44 76 34 86 22" fill="none" stroke="#6b3b19" stroke-width="22"/>
    <path d="M28 95 C40 84 51 72 60 58 C69 44 76 34 86 22" fill="none" stroke="#9f6531" stroke-width="15"/>

    <path d="M51 73 C45 64 40 57 33 52" fill="none" stroke="#6b3b19" stroke-width="12"/>
    <path d="M51 73 C45 64 40 57 33 52" fill="none" stroke="#a56a35" stroke-width="8"/>

    <path d="M58 60 C58 48 58 38 57 27" fill="none" stroke="#6b3b19" stroke-width="12"/>
    <path d="M58 60 C58 48 58 38 57 27" fill="none" stroke="#a56a35" stroke-width="8"/>

    <path d="M66 54 C77 48 88 39 102 28" fill="none" stroke="#6b3b19" stroke-width="13"/>
    <path d="M66 54 C77 48 88 39 102 28" fill="none" stroke="#a56a35" stroke-width="9"/>

    <path d="M68 66 C84 65 97 63 112 57" fill="none" stroke="#6b3b19" stroke-width="11"/>
    <path d="M68 66 C84 65 97 63 112 57" fill="none" stroke="#a56a35" stroke-width="7"/>

    <path d="M61 78 C71 75 80 75 92 76" fill="none" stroke="#6b3b19" stroke-width="10"/>
    <path d="M61 78 C71 75 80 75 92 76" fill="none" stroke="#a56a35" stroke-width="6"/>

    <path d="M100 60 C103 65 106 69 112 73" fill="none" stroke="#6b3b19" stroke-width="8"/>
    <path d="M100 60 C103 65 106 69 112 73" fill="none" stroke="#a56a35" stroke-width="5"/>

    <path d="M37 87 C44 79 50 70 57 60" fill="none" stroke="#70401d" stroke-width="3" opacity="0.45"/>
    <path d="M45 93 C52 85 57 77 63 68" fill="none" stroke="#d7a05c" stroke-width="3" opacity="0.28"/>
    <path d="M58 78 C65 69 70 59 77 49" fill="none" stroke="#70401d" stroke-width="3" opacity="0.35"/>
    <path d="M69 69 C77 60 86 53 95 45" fill="none" stroke="#d7a05c" stroke-width="3" opacity="0.24"/>
    <path d="M79 67 C88 66 98 63 108 60" fill="none" stroke="#70401d" stroke-width="3" opacity="0.32"/>

    <ellipse cx="28" cy="95" rx="12" ry="14" transform="rotate(42 28 95)" fill="#d9a35d" stroke="#6b3b19" stroke-width="5"/>
    <ellipse cx="28" cy="95" rx="6" ry="8" transform="rotate(42 28 95)" fill="#f4c987" opacity="0.7"/>

    <path d="M27 56 C21 46 30 38 38 41 C39 50 35 59 27 56Z" fill="#84cc16" stroke="#4d7c0f" stroke-width="4"/>
    <path d="M29 54 C31 49 32 46 33 42" fill="none" stroke="#4d7c0f" stroke-width="2.6" opacity="0.7"/>

    <path d="M51 31 C46 18 54 10 61 14 C63 24 59 32 51 31Z" fill="#84cc16" stroke="#4d7c0f" stroke-width="4"/>
    <path d="M56 29 C57 24 57 20 57 15" fill="none" stroke="#4d7c0f" stroke-width="2.6" opacity="0.7"/>

    <path d="M86 24 C89 10 101 8 106 14 C104 25 95 29 86 24Z" fill="#84cc16" stroke="#4d7c0f" stroke-width="4"/>
    <path d="M91 23 C95 20 98 17 102 13" fill="none" stroke="#4d7c0f" stroke-width="2.6" opacity="0.7"/>

    <path d="M95 37 C104 31 116 35 118 42 C109 48 98 46 95 37Z" fill="#84cc16" stroke="#4d7c0f" stroke-width="4"/>
    <path d="M100 39 C106 40 111 41 116 42" fill="none" stroke="#4d7c0f" stroke-width="2.6" opacity="0.7"/>

    <path d="M81 56 C90 51 100 54 102 60 C93 65 84 64 81 56Z" fill="#84cc16" stroke="#4d7c0f" stroke-width="4"/>
    <path d="M86 57 C91 58 95 58 99 59" fill="none" stroke="#4d7c0f" stroke-width="2.6" opacity="0.7"/>

    <path d="M87 79 C90 67 101 64 107 69 C106 80 97 84 87 79Z" fill="#84cc16" stroke="#4d7c0f" stroke-width="4"/>
    <path d="M92 78 C96 75 99 73 103 70" fill="none" stroke="#4d7c0f" stroke-width="2.6" opacity="0.7"/>

    <path d="M106 74 C114 69 124 72 126 79 C118 84 109 82 106 74Z" fill="#84cc16" stroke="#4d7c0f" stroke-width="4"/>
    <path d="M111 76 C116 77 120 78 124 79" fill="none" stroke="#4d7c0f" stroke-width="2.6" opacity="0.7"/>
  </g>
</svg>
